<mxfile host="app.diagrams.net" agent="Mozilla/5.0 (Windows NT 10.0; Win64; x64) AppleWebKit/537.36 (KHTML, like Gecko) Chrome/131.0.0.0 Safari/537.36" version="26.0.2">
  <diagram name="Flow Diagram" id="duLjFpFga0UEpb78MR-w">
    <mxGraphModel dx="2048" dy="725" grid="1" gridSize="10" guides="1" tooltips="1" connect="1" arrows="1" fold="1" page="1" pageScale="1" pageWidth="827" pageHeight="1169" math="0" shadow="0">
      <root>
        <mxCell id="0" />
        <mxCell id="1" parent="0" />
        <mxCell id="KwWV02WLEs6ErKX12bRp-33" value="" style="rounded=0;whiteSpace=wrap;html=1;" parent="1" vertex="1">
          <mxGeometry x="-200" y="420" width="900" height="110" as="geometry" />
        </mxCell>
        <mxCell id="KwWV02WLEs6ErKX12bRp-24" value="" style="rounded=0;whiteSpace=wrap;html=1;" parent="1" vertex="1">
          <mxGeometry x="-200" y="210" width="900" height="110" as="geometry" />
        </mxCell>
        <mxCell id="KwWV02WLEs6ErKX12bRp-20" value="" style="edgeStyle=orthogonalEdgeStyle;rounded=0;orthogonalLoop=1;jettySize=auto;html=1;" parent="1" source="KwWV02WLEs6ErKX12bRp-1" target="KwWV02WLEs6ErKX12bRp-19" edge="1">
          <mxGeometry relative="1" as="geometry" />
        </mxCell>
        <mxCell id="KwWV02WLEs6ErKX12bRp-1" value="Start" style="ellipse;whiteSpace=wrap;html=1;" parent="1" vertex="1">
          <mxGeometry x="-140" y="50" width="100" height="50" as="geometry" />
        </mxCell>
        <mxCell id="KwWV02WLEs6ErKX12bRp-2" value="Load Data" style="rounded=1;whiteSpace=wrap;html=1;" parent="1" vertex="1">
          <mxGeometry x="200" y="50" width="150" height="50" as="geometry" />
        </mxCell>
        <mxCell id="KwWV02WLEs6ErKX12bRp-23" style="edgeStyle=orthogonalEdgeStyle;rounded=0;orthogonalLoop=1;jettySize=auto;html=1;entryX=0.436;entryY=-0.02;entryDx=0;entryDy=0;entryPerimeter=0;" parent="1" source="KwWV02WLEs6ErKX12bRp-3" target="KwWV02WLEs6ErKX12bRp-4" edge="1">
          <mxGeometry relative="1" as="geometry">
            <mxPoint x="475" y="170" as="targetPoint" />
            <Array as="points">
              <mxPoint x="475" y="180" />
              <mxPoint x="-5" y="180" />
            </Array>
          </mxGeometry>
        </mxCell>
        <mxCell id="KwWV02WLEs6ErKX12bRp-3" value="Preprocessing" style="rounded=1;whiteSpace=wrap;html=1;" parent="1" vertex="1">
          <mxGeometry x="400" y="50" width="150" height="50" as="geometry" />
        </mxCell>
        <mxCell id="KwWV02WLEs6ErKX12bRp-4" value="Train Model" style="rounded=1;whiteSpace=wrap;html=1;" parent="1" vertex="1">
          <mxGeometry x="-70" y="240" width="150" height="50" as="geometry" />
        </mxCell>
        <mxCell id="KwWV02WLEs6ErKX12bRp-5" value="Validate Model" style="rounded=1;whiteSpace=wrap;html=1;" parent="1" vertex="1">
          <mxGeometry x="130" y="240" width="150" height="50" as="geometry" />
        </mxCell>
        <mxCell id="KwWV02WLEs6ErKX12bRp-32" value="" style="edgeStyle=orthogonalEdgeStyle;rounded=0;orthogonalLoop=1;jettySize=auto;html=1;" parent="1" source="KwWV02WLEs6ErKX12bRp-6" target="KwWV02WLEs6ErKX12bRp-31" edge="1">
          <mxGeometry relative="1" as="geometry" />
        </mxCell>
        <mxCell id="KwWV02WLEs6ErKX12bRp-6" value="Save Best Weights" style="rounded=1;whiteSpace=wrap;html=1;" parent="1" vertex="1">
          <mxGeometry x="330" y="240" width="150" height="50" as="geometry" />
        </mxCell>
        <mxCell id="KwWV02WLEs6ErKX12bRp-42" value="" style="edgeStyle=orthogonalEdgeStyle;rounded=0;orthogonalLoop=1;jettySize=auto;html=1;" parent="1" source="KwWV02WLEs6ErKX12bRp-7" target="KwWV02WLEs6ErKX12bRp-41" edge="1">
          <mxGeometry relative="1" as="geometry" />
        </mxCell>
        <mxCell id="KwWV02WLEs6ErKX12bRp-7" value="Test Model" style="rounded=1;whiteSpace=wrap;html=1;" parent="1" vertex="1">
          <mxGeometry x="-80" y="450" width="150" height="50" as="geometry" />
        </mxCell>
        <mxCell id="KwWV02WLEs6ErKX12bRp-8" value="Predict (Inference)" style="rounded=1;whiteSpace=wrap;html=1;" parent="1" vertex="1">
          <mxGeometry x="130" y="630" width="150" height="50" as="geometry" />
        </mxCell>
        <mxCell id="XQLYDzHu1TmmSAWwVL9i-2" value="" style="edgeStyle=orthogonalEdgeStyle;rounded=0;orthogonalLoop=1;jettySize=auto;html=1;" edge="1" parent="1" source="KwWV02WLEs6ErKX12bRp-9" target="XQLYDzHu1TmmSAWwVL9i-1">
          <mxGeometry relative="1" as="geometry" />
        </mxCell>
        <mxCell id="KwWV02WLEs6ErKX12bRp-9" value="Output Results" style="rounded=1;whiteSpace=wrap;html=1;" parent="1" vertex="1">
          <mxGeometry x="130" y="740" width="150" height="50" as="geometry" />
        </mxCell>
        <mxCell id="KwWV02WLEs6ErKX12bRp-11" parent="1" source="KwWV02WLEs6ErKX12bRp-2" target="KwWV02WLEs6ErKX12bRp-3" edge="1">
          <mxGeometry relative="1" as="geometry" />
        </mxCell>
        <mxCell id="KwWV02WLEs6ErKX12bRp-13" parent="1" source="KwWV02WLEs6ErKX12bRp-4" target="KwWV02WLEs6ErKX12bRp-5" edge="1">
          <mxGeometry relative="1" as="geometry" />
        </mxCell>
        <mxCell id="KwWV02WLEs6ErKX12bRp-14" parent="1" source="KwWV02WLEs6ErKX12bRp-5" target="KwWV02WLEs6ErKX12bRp-6" edge="1">
          <mxGeometry relative="1" as="geometry" />
        </mxCell>
        <mxCell id="KwWV02WLEs6ErKX12bRp-17" parent="1" source="KwWV02WLEs6ErKX12bRp-8" target="KwWV02WLEs6ErKX12bRp-9" edge="1">
          <mxGeometry relative="1" as="geometry" />
        </mxCell>
        <mxCell id="KwWV02WLEs6ErKX12bRp-21" value="" style="edgeStyle=orthogonalEdgeStyle;rounded=0;orthogonalLoop=1;jettySize=auto;html=1;" parent="1" source="KwWV02WLEs6ErKX12bRp-19" target="KwWV02WLEs6ErKX12bRp-2" edge="1">
          <mxGeometry relative="1" as="geometry" />
        </mxCell>
        <mxCell id="KwWV02WLEs6ErKX12bRp-19" value="Select Dataset" style="rounded=1;whiteSpace=wrap;html=1;" parent="1" vertex="1">
          <mxGeometry x="10" y="50" width="150" height="50" as="geometry" />
        </mxCell>
        <mxCell id="KwWV02WLEs6ErKX12bRp-25" value="&amp;nbsp;Model&lt;div&gt;Training&lt;/div&gt;" style="text;html=1;align=center;verticalAlign=middle;whiteSpace=wrap;rounded=0;" parent="1" vertex="1">
          <mxGeometry x="-170" y="250" width="60" height="30" as="geometry" />
        </mxCell>
        <mxCell id="KwWV02WLEs6ErKX12bRp-31" value="Save Models" style="rounded=1;whiteSpace=wrap;html=1;" parent="1" vertex="1">
          <mxGeometry x="530" y="240" width="150" height="50" as="geometry" />
        </mxCell>
        <mxCell id="KwWV02WLEs6ErKX12bRp-34" value="&amp;nbsp;Model&lt;div&gt;Testing&lt;/div&gt;" style="text;html=1;align=center;verticalAlign=middle;whiteSpace=wrap;rounded=0;" parent="1" vertex="1">
          <mxGeometry x="-170" y="460" width="60" height="30" as="geometry" />
        </mxCell>
        <mxCell id="KwWV02WLEs6ErKX12bRp-39" style="edgeStyle=orthogonalEdgeStyle;rounded=0;orthogonalLoop=1;jettySize=auto;html=1;entryX=0.436;entryY=-0.06;entryDx=0;entryDy=0;entryPerimeter=0;" parent="1" source="KwWV02WLEs6ErKX12bRp-31" target="KwWV02WLEs6ErKX12bRp-7" edge="1">
          <mxGeometry relative="1" as="geometry">
            <Array as="points">
              <mxPoint x="605" y="370" />
              <mxPoint x="-15" y="370" />
            </Array>
          </mxGeometry>
        </mxCell>
        <mxCell id="KwWV02WLEs6ErKX12bRp-44" value="" style="edgeStyle=orthogonalEdgeStyle;rounded=0;orthogonalLoop=1;jettySize=auto;html=1;" parent="1" source="KwWV02WLEs6ErKX12bRp-41" target="KwWV02WLEs6ErKX12bRp-43" edge="1">
          <mxGeometry relative="1" as="geometry" />
        </mxCell>
        <mxCell id="KwWV02WLEs6ErKX12bRp-41" value="&lt;span style=&quot;color: rgb(51, 51, 51); font-family: &amp;quot;Open Sans&amp;quot;, &amp;quot;Clear Sans&amp;quot;, &amp;quot;Helvetica Neue&amp;quot;, Helvetica, Arial, &amp;quot;Segoe UI Emoji&amp;quot;, sans-serif; orphans: 4; text-align: left; white-space-collapse: preserve; background-color: rgb(255, 255, 255);&quot;&gt;&lt;font&gt;Uses Trained Weights&lt;/font&gt;&lt;/span&gt;" style="rounded=1;whiteSpace=wrap;html=1;" parent="1" vertex="1">
          <mxGeometry x="130" y="450" width="150" height="50" as="geometry" />
        </mxCell>
        <mxCell id="KwWV02WLEs6ErKX12bRp-45" style="edgeStyle=orthogonalEdgeStyle;rounded=0;orthogonalLoop=1;jettySize=auto;html=1;entryX=0.5;entryY=0;entryDx=0;entryDy=0;" parent="1" source="KwWV02WLEs6ErKX12bRp-43" target="KwWV02WLEs6ErKX12bRp-8" edge="1">
          <mxGeometry relative="1" as="geometry">
            <Array as="points">
              <mxPoint x="414" y="570" />
              <mxPoint x="205" y="570" />
            </Array>
          </mxGeometry>
        </mxCell>
        <mxCell id="KwWV02WLEs6ErKX12bRp-43" value="Evaluate Performance" style="rounded=1;whiteSpace=wrap;html=1;" parent="1" vertex="1">
          <mxGeometry x="339" y="450" width="150" height="50" as="geometry" />
        </mxCell>
        <mxCell id="XQLYDzHu1TmmSAWwVL9i-1" value="End" style="shape=ellipse;" vertex="1" parent="1">
          <mxGeometry x="165" y="830" width="80" height="40" as="geometry" />
        </mxCell>
      </root>
    </mxGraphModel>
  </diagram>
</mxfile>
